<svg xmlns="http://www.w3.org/2000/svg" xmlns:xlink="http://www.w3.org/1999/xlink" viewBox="0 0 899.11 243.4"><defs><style>.cls-1{fill:url(#linear-gradient);}.cls-2{fill:url(#linear-gradient-2);}.cls-3{fill:url(#linear-gradient-3);}.cls-4{fill:url(#linear-gradient-4);}.cls-5{fill:url(#linear-gradient-5);}.cls-6{fill:url(#linear-gradient-6);}.cls-7{fill:url(#linear-gradient-7);}</style><linearGradient id="linear-gradient" x1="356.68" y1="57.48" x2="356.68" y2="185.36" gradientUnits="userSpaceOnUse"><stop offset="0" stop-color="#fff"/><stop offset="0.05" stop-color="#fff9f8"/><stop offset="0.16" stop-color="#feeeed"/><stop offset="0.28" stop-color="#feebe9"/><stop offset="0.67" stop-color="#fcd9d8"/><stop offset="0.89" stop-color="#fac7c7"/><stop offset="1" stop-color="#f8b6b8"/></linearGradient><linearGradient id="linear-gradient-2" x1="470.03" y1="59.89" x2="470.03" y2="182.78" xlink:href="#linear-gradient"/><linearGradient id="linear-gradient-3" x1="543.59" y1="59.89" x2="543.59" y2="182.78" xlink:href="#linear-gradient"/><linearGradient id="linear-gradient-4" x1="623.68" y1="59.89" x2="623.68" y2="182.78" xlink:href="#linear-gradient"/><linearGradient id="linear-gradient-5" x1="733.68" y1="59.89" x2="733.68" y2="182.78" xlink:href="#linear-gradient"/><linearGradient id="linear-gradient-6" x1="850.38" y1="59.89" x2="850.38" y2="182.78" xlink:href="#linear-gradient"/><linearGradient id="linear-gradient-7" x1="121.7" y1="0" x2="121.7" y2="243.4" xlink:href="#linear-gradient"/></defs><g id="Layer_2" data-name="Layer 2"><g id="Layer_1-2" data-name="Layer 1"><g id="CEIPHR_Medium" data-name="CEIPHR Medium"><path class="cls-1" d="M301.68,121.76c0-36.43,22.68-64.28,58.95-64.28,30.25,0,48.12,18.05,50.7,41.42H386.58c-2.23-12.37-11.51-20.45-25.95-20.45-22.69,0-33.52,18.91-33.52,43.31,0,25.1,13.07,43.14,33.69,43.14,14.61,0,24.92-8.76,26.47-21.65h24.41a43.5,43.5,0,0,1-13.58,29c-8.42,7.91-20.28,13.07-37.3,13.07C326.25,185.36,301.68,158.72,301.68,121.76Z"/><path class="cls-2" d="M424.57,59.89H515v21H449.49v27.5h57.4v20.45h-57.4V162h66v20.8H424.57Z"/><path class="cls-3" d="M531.13,59.89h24.92V182.78H531.13Z"/><path class="cls-4" d="M575.13,59.89h54c14.27,0,24.93,4.12,32.14,11.51,6.88,7,11,16.68,11,28,0,23.2-15.29,38.84-41.07,38.84H600.91v44.52H575.13ZM600.91,118h25.78c13.06,0,19.94-7.22,19.94-18.39,0-11.51-7.22-18-19.6-18H600.91Z"/><path class="cls-5" d="M684.61,59.89h24.92V108h48.3V59.89h24.92V182.78H757.83V128.64h-48.3v54.14H684.61Z"/><path class="cls-6" d="M801.66,59.89H858c23.72,0,39.53,13.75,39.53,34.2,0,14.44-6.7,25.44-22.51,29.74v.51c11.34,3.27,17.18,9.8,18.73,24.75,1.72,17.36,1,30.59,5.33,32.49v1.2H875.22c-3.09-1.38-3.44-15.13-4.47-28.36-1-13.41-8.59-21-24.06-21H826.58v49.33H801.66Zm24.92,54.31h26.47c13.58,0,20.28-7,20.28-16.84,0-10-6.36-17.36-19.6-17.36H826.58Z"/></g><path id="ARI" class="cls-7" d="M0,121.7A121.7,121.7,0,1,0,121.7,0,121.7,121.7,0,0,0,0,121.7Zm157.83,35.43A12.17,12.17,0,0,1,170,169.3v1.08a12.17,12.17,0,0,1-12.17,12.17h-1.08a12.17,12.17,0,0,1-12.17-12.17V169.3a12.17,12.17,0,0,1,12.17-12.17Zm-35.59,0a12.17,12.17,0,0,1,12.17,12.17v1.08a12.17,12.17,0,0,1-12.17,12.17h-1.08A12.17,12.17,0,0,1,109,170.38V169.3a12.17,12.17,0,0,1,12.17-12.17Zm-35.59,0A12.17,12.17,0,0,1,98.82,169.3v1.08a12.17,12.17,0,0,1-12.17,12.17H85.57A12.17,12.17,0,0,1,73.4,170.38V169.3a12.17,12.17,0,0,1,12.17-12.17Zm71.18-35.43A12.17,12.17,0,0,1,170,133.87V135a12.16,12.16,0,0,1-12.17,12.17h-1.08A12.17,12.17,0,0,1,144.58,135v-1.08a12.17,12.17,0,0,1,12.17-12.17ZM122.24,96.28a12.17,12.17,0,0,1,12.17,12.17V135a12.17,12.17,0,0,1-12.17,12.17h-1.08A12.17,12.17,0,0,1,109,135v-26.5a12.17,12.17,0,0,1,12.17-12.17Zm-35.59,0a12.17,12.17,0,0,1,12.17,12.17V135a12.17,12.17,0,0,1-12.17,12.17H85.57A12.17,12.17,0,0,1,73.4,135v-26.5A12.17,12.17,0,0,1,85.57,96.28Zm35.59-35.43A12.17,12.17,0,0,1,134.41,73V74.1a12.17,12.17,0,0,1-12.17,12.17h-1.08A12.17,12.17,0,0,1,109,74.1V73a12.17,12.17,0,0,1,12.17-12.17Z"/></g></g></svg>